# xmcd CD database file
#
# Track frame offsets:
#	150
#	17580
#	45515
#
# Disc length: 861 seconds
#
# Revision: 1
# Processed by: cddbd v1.4PL0 Copyright (c) Steve Scherf et al.
# Submitted via: CDex 1.50beta10
#
DISCID=17035b03
DTITLE=Dot Allison - Mo'Pop
DYEAR=1999
DGENRE=Pop
TTITLE0=Mo' Pop
TTITLE1=Melted (edit)
TTITLE2=Blind
EXTD=YEAR: 1999
EXTT0=
EXTT1=
EXTT2=
PLAYORDER=
